<mxfile host="65bd71144e">
    <diagram id="e5YJLGCmw3MfExp_BTUb" name="Page-1">
        <mxGraphModel dx="940" dy="557" grid="1" gridSize="10" guides="1" tooltips="1" connect="1" arrows="1" fold="1" page="1" pageScale="1" pageWidth="827" pageHeight="1169" math="0" shadow="0">
            <root>
                <mxCell id="0"/>
                <mxCell id="1" parent="0"/>
                <mxCell id="10" style="edgeStyle=none;html=1;" edge="1" parent="1" source="2">
                    <mxGeometry relative="1" as="geometry">
                        <mxPoint x="375" y="160" as="targetPoint"/>
                    </mxGeometry>
                </mxCell>
                <mxCell id="2" value="" style="html=1;verticalLabelPosition=bottom;labelBackgroundColor=#ffffff;verticalAlign=top;shadow=0;dashed=0;strokeWidth=1;shape=mxgraph.ios7.misc.iphone;strokeColor=#c0c0c0;rotation=-90;" vertex="1" parent="1">
                    <mxGeometry x="163.12" y="150" width="423.75" height="470" as="geometry"/>
                </mxCell>
                <mxCell id="3" value="IMG" style="rounded=0;whiteSpace=wrap;html=1;" vertex="1" parent="1">
                    <mxGeometry x="220" y="220" width="90" height="60" as="geometry"/>
                </mxCell>
                <mxCell id="4" value="ABOUT/HOBBIES" style="rounded=0;whiteSpace=wrap;html=1;" vertex="1" parent="1">
                    <mxGeometry x="330" y="220" width="190" height="60" as="geometry"/>
                </mxCell>
                <mxCell id="5" value="MYINFO" style="rounded=0;whiteSpace=wrap;html=1;" vertex="1" parent="1">
                    <mxGeometry x="220" y="290" width="90" height="70" as="geometry"/>
                </mxCell>
                <mxCell id="6" value="WORK&amp;nbsp;&amp;nbsp;EXPERIENCE&amp;nbsp;" style="rounded=0;whiteSpace=wrap;html=1;" vertex="1" parent="1">
                    <mxGeometry x="330" y="290" width="190" height="100" as="geometry"/>
                </mxCell>
                <mxCell id="7" value="SKILS" style="rounded=0;whiteSpace=wrap;html=1;" vertex="1" parent="1">
                    <mxGeometry x="222.5" y="370" width="85" height="120" as="geometry"/>
                </mxCell>
                <mxCell id="8" value="EDUCATION" style="rounded=0;whiteSpace=wrap;html=1;" vertex="1" parent="1">
                    <mxGeometry x="330" y="400" width="190" height="100" as="geometry"/>
                </mxCell>
                <mxCell id="9" value="FOOTER" style="rounded=1;whiteSpace=wrap;html=1;" vertex="1" parent="1">
                    <mxGeometry x="215" y="510" width="320" height="50" as="geometry"/>
                </mxCell>
            </root>
        </mxGraphModel>
    </diagram>
</mxfile>